<svg width="20" height="19" viewBox="0 0 20 19" fill="none" xmlns="http://www.w3.org/2000/svg">
<g clip-path="url(#clip0_30_215)">
<path fill-rule="evenodd" clip-rule="evenodd" d="M14.5125 11.3858C14.2642 11.2678 13.0467 10.6994 12.82 10.6202C12.5933 10.5419 12.4283 10.5031 12.2625 10.739C12.0975 10.9733 11.6233 11.5037 11.4792 11.6605C11.3342 11.818 11.19 11.837 10.9425 11.7199C10.695 11.6011 9.89667 11.3533 8.95083 10.5522C8.215 9.92832 7.7175 9.15803 7.57333 8.92212C7.42917 8.68699 7.5575 8.55953 7.68167 8.44237C7.79333 8.33707 7.92917 8.16766 8.05333 8.0307C8.1775 7.89295 8.21833 7.79478 8.30083 7.63724C8.38417 7.48049 8.3425 7.34353 8.28 7.22557C8.21833 7.10762 7.72333 5.94941 7.51667 5.47837C7.31583 5.01999 7.11167 5.08253 6.96 5.07462C6.815 5.06828 6.65 5.0667 6.485 5.0667C6.32 5.0667 6.05167 5.12528 5.825 5.3612C5.5975 5.59632 4.95833 6.16553 4.95833 7.32374C4.95833 8.48116 5.845 9.59978 5.96917 9.75732C6.09333 9.91407 7.715 12.2907 10.1992 13.3095C10.7908 13.5518 11.2517 13.6967 11.6108 13.8043C12.2042 13.984 12.7442 13.9587 13.1708 13.8977C13.6458 13.8304 14.6358 13.3285 14.8425 12.7791C15.0483 12.2297 15.0483 11.7587 14.9867 11.6605C14.925 11.5623 14.76 11.5037 14.5117 11.3858H14.5125ZM9.99417 17.2465H9.99083C8.51536 17.2467 7.06698 16.8699 5.7975 16.1556L5.4975 15.9862L2.37917 16.7636L3.21167 13.8756L3.01583 13.5795C2.19095 12.3321 1.75441 10.8884 1.75667 9.41532C1.75833 5.10074 5.45333 1.59049 9.9975 1.59049C12.1975 1.59049 14.2658 2.40591 15.8208 3.88474C16.5878 4.61037 17.1957 5.47327 17.6094 6.42353C18.0231 7.3738 18.2343 8.39255 18.2308 9.42087C18.2292 13.7354 14.5342 17.2465 9.99417 17.2465ZM17.0042 2.76137C16.086 1.88335 14.9935 1.18717 13.7901 0.713166C12.5866 0.239166 11.2961 -0.00322703 9.99333 3.24406e-05C4.53167 3.24406e-05 0.085 4.22357 0.0833333 9.41453C0.0825 11.0739 0.538333 12.6936 1.40583 14.121L0 19L5.25333 17.6906C6.70656 18.4428 8.33508 18.8369 9.99 18.8369H9.99417C15.4558 18.8369 19.9025 14.6134 19.9042 9.42166C19.9082 8.1845 19.654 6.95886 19.1562 5.81564C18.6584 4.67242 17.927 3.63431 17.0042 2.76137Z" fill="white"/>
</g>
<defs>
<clipPath id="clip0_30_215">
<rect width="20" height="19" fill="white"/>
</clipPath>
</defs>
</svg>
