<svg width="22" height="19" viewBox="0 0 22 19" fill="none" xmlns="http://www.w3.org/2000/svg">
<path fill-rule="evenodd" clip-rule="evenodd" d="M19 9.5C19 14.7464 14.7464 19 9.5 19C4.25363 19 0 14.7464 0 9.5C0 4.25363 4.25363 0 9.5 0C14.7464 0 19 4.25363 19 9.5ZM9.84042 7.01338C8.91654 7.39733 7.06958 8.19296 4.30033 9.39946C3.85067 9.57838 3.61475 9.75333 3.59338 9.92433C3.55696 10.2141 3.91954 10.3281 4.41196 10.4825C4.47925 10.5038 4.54892 10.5252 4.62017 10.549C5.10546 10.7065 5.75779 10.891 6.09663 10.8981C6.40458 10.9044 6.74817 10.7778 7.12738 10.5181C9.71454 8.77087 11.0501 7.88817 11.134 7.86917C11.1934 7.85571 11.2757 7.83829 11.3311 7.88817C11.3865 7.93725 11.381 8.03067 11.3755 8.056C11.339 8.20879 9.91879 9.53008 9.18254 10.2141C8.95296 10.427 8.79067 10.5782 8.75742 10.6131C8.683 10.6899 8.607 10.7635 8.53417 10.834C8.08292 11.2678 7.74567 11.594 8.55317 12.126C8.94108 12.3817 9.25142 12.593 9.56096 12.8036C9.899 13.034 10.2363 13.2636 10.6733 13.5502C10.7841 13.623 10.8902 13.6982 10.9939 13.7718C11.3873 14.0529 11.7412 14.3046 12.1782 14.265C12.4315 14.2413 12.6944 14.003 12.8274 13.2913C13.1417 11.6082 13.7607 7.96338 13.904 6.46079C13.9128 6.33604 13.9075 6.2107 13.8882 6.08713C13.8767 5.98732 13.8281 5.89549 13.752 5.82983C13.6388 5.73721 13.4631 5.71742 13.3839 5.719C13.0269 5.72533 12.479 5.91613 9.84042 7.01338Z" fill="white"/>
</svg>
