<svg width="20" height="19" viewBox="0 0 20 19" fill="none" xmlns="http://www.w3.org/2000/svg">
<path d="M9.49876 0.00276471C7.89376 0.021171 4.44313 0.271733 2.51313 1.95383C1.07751 3.3052 0.576256 5.30317 0.517506 7.77376C0.468756 10.2355 0.410006 14.8584 5.10063 16.1171V18.0344C5.10063 18.0344 5.07126 18.8015 5.60501 18.9588C6.26251 19.1565 6.63688 18.5664 7.26188 17.9322L8.42751 16.68C11.6369 16.9335 14.095 16.3493 14.3781 16.2626C15.0294 16.0649 18.6975 15.6196 19.2969 10.996C19.9119 6.22111 18.9975 3.21258 17.3469 1.8517H17.3369C16.8388 1.41589 14.8369 0.0300772 10.3644 0.0146397C10.3644 0.0146397 10.0325 -0.00673528 9.49876 0.00217096V0.00276471ZM9.55376 1.34523C10.0094 1.34226 10.2863 1.36067 10.2863 1.36067C14.0719 1.37017 15.8788 2.45258 16.305 2.81714C17.695 3.94883 18.4113 6.66108 17.8869 10.6475C17.3888 14.5128 14.4138 14.7575 13.8631 14.9243C13.6288 14.9955 11.4638 15.5026 8.73626 15.3358C8.73626 15.3358 6.70501 17.6644 6.07001 18.2641C5.96938 18.3692 5.85188 18.4001 5.77688 18.3847C5.66938 18.3597 5.63688 18.2333 5.64313 18.0599L5.66251 14.878C1.68438 13.833 1.91876 9.88989 1.96126 7.83017C2.01001 5.77045 2.41688 4.08539 3.62813 2.9442C5.25876 1.54355 8.18876 1.35473 9.55251 1.34523H9.55376ZM9.85376 3.40436C9.82102 3.40404 9.78853 3.40989 9.75818 3.42156C9.72783 3.43323 9.70021 3.45049 9.67691 3.47234C9.65361 3.4942 9.6351 3.52022 9.62244 3.54891C9.60977 3.57759 9.60321 3.60838 9.60313 3.63948C9.60313 3.77248 9.71688 3.87758 9.85376 3.87758C10.4734 3.86638 11.0893 3.97184 11.6659 4.18789C12.2425 4.40393 12.7683 4.72627 13.2131 5.13633C14.1213 5.97411 14.5638 7.09986 14.5806 8.57176C14.5806 8.7018 14.6913 8.80986 14.8313 8.80986V8.80036C14.8972 8.80052 14.9606 8.77589 15.0076 8.73185C15.0545 8.6878 15.0812 8.62791 15.0819 8.56523C15.1122 7.87242 14.994 7.18097 14.7343 6.53292C14.4746 5.88488 14.0789 5.29377 13.5713 4.79551C12.5819 3.87698 11.3281 3.40376 9.85376 3.40376V3.40436ZM6.55938 3.94883C6.38247 3.92427 6.20205 3.95801 6.04813 4.04442H6.03501C5.67767 4.24341 5.35576 4.49491 5.08126 4.78958C4.85313 5.04014 4.72938 5.29367 4.69688 5.5377C4.67751 5.68317 4.69063 5.82864 4.73626 5.96758L4.75251 5.97708C5.00938 6.69433 5.34501 7.38426 5.75501 8.03383C6.28314 8.94639 6.9331 9.79036 7.68876 10.5448L7.71126 10.5757L7.74688 10.6006L7.76938 10.6255L7.79563 10.6469C8.59265 11.3669 9.48319 11.9872 10.4456 12.4929C11.5456 13.0617 12.2131 13.3307 12.6138 13.4423V13.4482C12.7313 13.4821 12.8381 13.4975 12.9456 13.4975C13.2871 13.4737 13.6103 13.3421 13.8638 13.1235C14.1725 12.8626 14.4343 12.5555 14.6388 12.2144V12.2085C14.8306 11.8653 14.7656 11.5405 14.4888 11.3208C13.9343 10.8604 13.3347 10.4514 12.6981 10.0995C12.2719 9.8798 11.8388 10.0128 11.6631 10.2355L11.2888 10.6837C11.0969 10.9064 10.7481 10.8755 10.7481 10.8755L10.7381 10.8815C8.13751 10.2503 7.44376 7.74883 7.44376 7.74883C7.44376 7.74883 7.41126 7.40861 7.65188 7.23523L8.12063 6.87661C8.34501 6.70323 8.50126 6.29236 8.26063 5.88683C7.89276 5.28129 7.4632 4.71153 6.97813 4.18573C6.87209 4.06178 6.72332 3.97744 6.55813 3.94764L6.55938 3.94883ZM10.2863 4.6542C9.95438 4.6542 9.95438 5.13039 10.2894 5.13039C10.7021 5.13675 11.1094 5.2203 11.488 5.37628C11.8667 5.53226 12.2093 5.7576 12.4963 6.03942C12.758 6.31374 12.9592 6.63518 13.0878 6.98469C13.2164 7.33421 13.2699 7.7047 13.245 8.0742C13.2461 8.13673 13.273 8.19636 13.3199 8.2403C13.3667 8.28425 13.4298 8.30903 13.4956 8.30933L13.5056 8.3218C13.5719 8.32133 13.6354 8.29609 13.6823 8.25154C13.7292 8.20699 13.7558 8.1467 13.7563 8.0837C13.7788 7.14023 13.47 6.34876 12.8644 5.71464C12.2556 5.08051 11.4063 4.72486 10.3219 4.6542H10.2863ZM10.6969 5.93433C10.355 5.92483 10.3419 6.41051 10.6806 6.42001C11.5044 6.46039 11.9044 6.85583 11.9569 7.66926C11.958 7.73101 11.9846 7.78988 12.0308 7.83327C12.0771 7.87666 12.1394 7.90112 12.2044 7.90142H12.2144C12.2478 7.90006 12.2806 7.89239 12.3109 7.87885C12.3411 7.86532 12.3683 7.84619 12.3907 7.82259C12.4131 7.79899 12.4303 7.77139 12.4413 7.74139C12.4524 7.71139 12.457 7.67961 12.455 7.64789C12.3963 6.58745 11.7875 5.99014 10.7069 5.93492H10.6969V5.93433Z" fill="white"/>
</svg>
