<svg width="71" height="71" viewBox="0 0 71 71" fill="none" xmlns="http://www.w3.org/2000/svg">
<path d="M35.5 65.0834L42.8959 59.1667M35.5 65.0834V38.4584V65.0834ZM35.5 65.0834L28.1042 59.1667L35.5 65.0834Z" stroke="#F8F8F8" stroke-width="3" stroke-linecap="round" stroke-linejoin="round"/>
<path d="M14.8923 26.9711C12.0943 27.6752 9.64974 29.3767 8.01785 31.7561C6.38596 34.1354 5.67908 37.0287 6.03001 39.8925C6.38094 42.7563 7.76553 45.3933 9.92364 47.3082C12.0818 49.2231 14.8648 50.284 17.75 50.2917H20.7083" stroke="#F8F8F8" stroke-width="3" stroke-linecap="round" stroke-linejoin="round"/>
<path d="M46.8304 21.1166C45.8193 17.1127 43.3236 13.6431 39.8492 11.4111C36.3747 9.17905 32.1816 8.35165 28.1197 9.0966C24.0579 9.84155 20.4313 12.1031 17.975 15.4228C15.5188 18.7425 14.4168 22.872 14.8923 26.9741C14.8923 26.9741 15.3449 29.5833 16.2709 31.0625" stroke="#F8F8F8" stroke-width="3" stroke-linecap="round" stroke-linejoin="round"/>
<path d="M50.2917 50.2917C52.3804 50.2902 54.4451 49.8465 56.35 48.9896C58.2548 48.1327 59.9565 46.8821 61.3432 45.3201C62.7299 43.7581 63.77 41.9202 64.3952 39.9272C65.0204 37.9343 65.2164 35.8315 64.9703 33.7574C64.7242 31.6832 64.0417 29.6847 62.9675 27.8934C61.8934 26.102 60.4521 24.5585 58.7384 23.3643C57.0248 22.1701 55.0776 21.3524 53.0252 20.965C50.9727 20.5776 48.8615 20.6293 46.8305 21.1166L42.8959 22.1875" stroke="#F8F8F8" stroke-width="3" stroke-linecap="round" stroke-linejoin="round"/>
</svg>
