<svg width="71" height="74" viewBox="0 0 71 74" fill="none" xmlns="http://www.w3.org/2000/svg">
<circle cx="35.5" cy="41.5" r="32.5" fill="#A56492" fill-opacity="0.65"/>
<path d="M49.4604 58.433L47.5671 43.2745C47.2988 41.1274 46.2553 39.1523 44.6329 37.7206C43.0105 36.2889 40.9209 35.4992 38.7572 35.5H32.237C30.0742 35.5006 27.9861 36.2909 26.3649 37.7225C24.7438 39.1541 23.7012 41.1284 23.433 43.2745L21.5367 58.433C21.4326 59.2658 21.5069 60.1112 21.7547 60.9131C22.0024 61.715 22.4179 62.455 22.9736 63.084C23.5293 63.713 24.2124 64.2166 24.9776 64.5613C25.7428 64.906 26.5727 65.0839 27.4119 65.0833H43.5881C44.4271 65.0835 45.2566 64.9052 46.0215 64.5603C46.7864 64.2155 47.4691 63.7118 48.0245 63.0829C48.5799 62.454 48.9951 61.7141 49.2427 60.9124C49.4902 60.1107 49.5644 59.2656 49.4604 58.433V58.433Z" stroke="#F8F8F8" stroke-width="5" stroke-linecap="round" stroke-linejoin="round"/>
<path d="M35.5 23.6667C40.4015 23.6667 44.375 19.6932 44.375 14.7917C44.375 9.89014 40.4015 5.91666 35.5 5.91666C30.5985 5.91666 26.625 9.89014 26.625 14.7917C26.625 19.6932 30.5985 23.6667 35.5 23.6667Z" stroke="#F8F8F8" stroke-width="5"/>
<path d="M11.8334 32.5417C15.101 32.5417 17.75 29.8927 17.75 26.625C17.75 23.3573 15.101 20.7083 11.8334 20.7083C8.56567 20.7083 5.91669 23.3573 5.91669 26.625C5.91669 29.8927 8.56567 32.5417 11.8334 32.5417Z" stroke="#F8F8F8" stroke-width="5"/>
<path d="M59.1667 32.5417C62.4344 32.5417 65.0833 29.8927 65.0833 26.625C65.0833 23.3573 62.4344 20.7083 59.1667 20.7083C55.899 20.7083 53.25 23.3573 53.25 26.625C53.25 29.8927 55.899 32.5417 59.1667 32.5417Z" stroke="#F8F8F8" stroke-width="5"/>
<path d="M11.8333 41.4167H10.9281C9.5275 41.4165 8.17227 41.9132 7.10349 42.8184C6.03471 43.7235 5.3217 44.9785 5.0913 46.36L4.10618 52.2767C3.9648 53.1244 4.0098 53.9927 4.23803 54.8213C4.46626 55.6498 4.87224 56.4187 5.42774 57.0744C5.98325 57.7302 6.67494 58.257 7.45469 58.6183C8.23445 58.9797 9.08356 59.1668 9.94297 59.1667H20.7083" stroke="#F8F8F8" stroke-width="5" stroke-linecap="round" stroke-linejoin="round"/>
<path d="M59.1667 41.4167H60.0719C61.4725 41.4165 62.8278 41.9132 63.8965 42.8184C64.9653 43.7235 65.6783 44.9785 65.9087 46.36L66.8939 52.2767C67.0352 53.1244 66.9902 53.9927 66.762 54.8213C66.5338 55.6498 66.1278 56.4187 65.5723 57.0744C65.0168 57.7302 64.3251 58.257 63.5453 58.6183C62.7656 58.9797 61.9165 59.1668 61.0571 59.1667H50.2917" stroke="#F8F8F8" stroke-width="5" stroke-linecap="round" stroke-linejoin="round"/>
</svg>
