<svg width="71" height="71" viewBox="0 0 71 71" fill="none" xmlns="http://www.w3.org/2000/svg">
<circle cx="35.5" cy="34.5" r="32.5" fill="#A56492" fill-opacity="0.65"/>
<path d="M35.4538 10.6145C37.5506 10.6145 39.5615 11.4474 41.0441 12.9301C42.5267 14.4127 43.3597 16.4236 43.3597 18.5204C43.3597 20.6171 42.5267 22.628 41.0441 24.1106C39.5615 25.5933 37.5506 26.4262 35.4538 26.4262C33.3566 26.4262 31.3453 25.5931 29.8623 24.1101C28.3793 22.6272 27.5462 20.6158 27.5462 18.5186C27.5462 16.4214 28.3793 14.41 29.8623 12.9271C31.3453 11.4441 33.3566 10.611 35.4538 10.611V10.6145ZM35.4538 14.1645C34.2986 14.1645 33.1907 14.6234 32.3738 15.4403C31.5569 16.2572 31.098 17.3651 31.098 18.5204C31.098 19.6756 31.5569 20.7835 32.3738 21.6004C33.1907 22.4173 34.2986 22.8762 35.4538 22.8762C36.6095 22.8762 37.7179 22.4171 38.5351 21.5999C39.3523 20.7827 39.8115 19.6743 39.8115 18.5186C39.8115 17.3629 39.3523 16.2545 38.5351 15.4373C37.7179 14.6201 36.6095 14.161 35.4538 14.161V14.1645ZM10.7068 40.825C10.7068 41.2958 10.5198 41.7472 10.1869 42.0801C9.85401 42.413 9.40253 42.6 8.93178 42.6C8.46102 42.6 8.00954 42.413 7.67666 42.0801C7.34378 41.7472 7.15678 41.2958 7.15678 40.825V31.9997C7.15689 31.1302 7.47612 30.291 8.05391 29.6412C8.63171 28.9914 9.42788 28.5763 10.2914 28.4746L10.7068 28.4497H20.4941C19.9776 29.341 19.6625 30.3346 19.5711 31.3607L19.5427 31.9997H10.7032V40.825H10.7068ZM62.0895 42.6C62.5602 42.6 63.0117 42.413 63.3446 42.0801C63.6775 41.7472 63.8645 41.2958 63.8645 40.825V31.9997L63.8396 31.5879C63.7387 30.7237 63.3239 29.9267 62.6741 29.3482C62.0242 28.7697 61.1845 28.4499 60.3145 28.4497H50.4313C50.9496 29.3479 51.2833 30.3774 51.3614 31.4708L51.3791 32.0033H60.3145V40.825C60.3145 41.2958 60.5015 41.7472 60.8344 42.0801C61.1672 42.413 61.6187 42.6 62.0895 42.6ZM44.2827 28.4497C45.1527 28.4499 45.9924 28.7697 46.6423 29.3482C47.2921 29.9267 47.7069 30.7237 47.8078 31.5879L47.8291 31.9997V40.825C47.8291 41.2958 47.6421 41.7472 47.3092 42.0801C46.9764 42.413 46.5249 42.6 46.0541 42.6C45.5834 42.6 45.1319 42.413 44.799 42.0801C44.4661 41.7472 44.2791 41.2958 44.2791 40.825V31.9997H26.6427V40.825C26.6427 41.2958 26.4557 41.7472 26.1228 42.0801C25.79 42.413 25.3385 42.6 24.8677 42.6C24.397 42.6 23.9455 42.413 23.6126 42.0801C23.2797 41.7472 23.0927 41.2958 23.0927 40.825V31.9997C23.0928 31.1302 23.4121 30.291 23.9899 29.6412C24.5677 28.9914 25.3638 28.5763 26.2274 28.4746L26.6427 28.4497H44.2791H44.2827ZM59.9524 19.6351C59.9524 17.8335 59.2367 16.1057 57.9628 14.8317C56.6889 13.5578 54.961 12.8421 53.1595 12.8421C51.3579 12.8421 49.63 13.5578 48.3561 14.8317C47.0822 16.1057 46.3665 17.8335 46.3665 19.6351C46.3665 21.4367 47.0822 23.1645 48.3561 24.4384C49.63 25.7123 51.3579 26.428 53.1595 26.428C54.961 26.428 56.6889 25.7123 57.9628 24.4384C59.2367 23.1645 59.9524 21.4367 59.9524 19.6351ZM49.9165 19.6351C49.9165 18.775 50.2582 17.9501 50.8664 17.342C51.4745 16.7338 52.2994 16.3921 53.1595 16.3921C54.0195 16.3921 54.8444 16.7338 55.4525 17.342C56.0607 17.9501 56.4024 18.775 56.4024 19.6351C56.4024 20.4951 56.0607 21.32 55.4525 21.9282C54.8444 22.5363 54.0195 22.878 53.1595 22.878C52.2994 22.878 51.4745 22.5363 50.8664 21.9282C50.2582 21.32 49.9165 20.4951 49.9165 19.6351ZM17.8068 12.8404C19.6084 12.8404 21.3362 13.556 22.6101 14.83C23.884 16.1039 24.5997 17.8317 24.5997 19.6333C24.5997 21.4349 23.884 23.1627 22.6101 24.4366C21.3362 25.7105 19.6084 26.4262 17.8068 26.4262C16.0052 26.4262 14.2774 25.7105 13.0035 24.4366C11.7295 23.1627 11.0139 21.4349 11.0139 19.6333C11.0139 17.8317 11.7295 16.1039 13.0035 14.83C14.2774 13.556 16.0052 12.8404 17.8068 12.8404ZM17.8068 16.3904C16.9467 16.3904 16.1218 16.732 15.5137 17.3402C14.9055 17.9484 14.5639 18.7732 14.5639 19.6333C14.5639 20.4934 14.9055 21.3182 15.5137 21.9264C16.1218 22.5345 16.9467 22.8762 17.8068 22.8762C18.6669 22.8762 19.4917 22.5345 20.0999 21.9264C20.708 21.3182 21.0497 20.4934 21.0497 19.6333C21.0497 18.7732 20.708 17.9484 20.0999 17.3402C19.4917 16.732 18.6669 16.3904 17.8068 16.3904ZM8.87498 46.15C8.40422 46.15 7.95274 46.337 7.61986 46.6699C7.28698 47.0028 7.09998 47.4543 7.09998 47.925V51.475C7.09998 53.8288 8.03502 56.0862 9.6994 57.7506C11.3638 59.415 13.6212 60.35 15.975 60.35H55.025C57.3788 60.35 59.6362 59.415 61.3005 57.7506C62.9649 56.0862 63.9 53.8288 63.9 51.475V47.925C63.9 47.4543 63.713 47.0028 63.3801 46.6699C63.0472 46.337 62.5957 46.15 62.125 46.15H8.87498ZM10.65 51.475V49.7H60.35V51.475C60.35 52.8873 59.7889 54.2417 58.7903 55.2404C57.7917 56.239 56.4373 56.8 55.025 56.8H15.975C14.5627 56.8 13.2083 56.239 12.2096 55.2404C11.211 54.2417 10.65 52.8873 10.65 51.475Z" fill="#F8F8F8"/>
</svg>
