<svg width="71" height="71" viewBox="0 0 71 71" fill="none" xmlns="http://www.w3.org/2000/svg">
<circle cx="35.5" cy="35.5" r="32.5" fill="#A56492" fill-opacity="0.65"/>
<path d="M68.0417 31.625H53.25C52.4654 31.625 51.7129 31.9367 51.1581 32.4915C50.6033 33.0463 50.2917 33.7987 50.2917 34.5833V61.2083C50.2917 61.9929 50.6033 62.7454 51.1581 63.3002C51.7129 63.855 52.4654 64.1667 53.25 64.1667H68.0417C68.8263 64.1667 69.5787 63.855 70.1335 63.3002C70.6883 62.7454 71 61.9929 71 61.2083V34.5833C71 33.7987 70.6883 33.0463 70.1335 32.4915C69.5787 31.9367 68.8263 31.625 68.0417 31.625ZM68.0417 58.25H53.25V37.5417H68.0417V58.25ZM59.1667 5H5.91667C2.63292 5 0 7.63292 0 10.9167V46.4167C0 47.9859 0.623361 49.4908 1.73295 50.6004C2.84254 51.71 4.34747 52.3333 5.91667 52.3333H26.625V58.25H20.7083V64.1667H44.375V58.25H38.4583V52.3333H44.375V46.4167H5.91667V10.9167H59.1667V25.7083H65.0833V10.9167C65.0833 9.34747 64.46 7.84255 63.3504 6.73296C62.2408 5.62336 60.7359 5 59.1667 5Z" fill="#F8F8F8"/>
</svg>
