<svg width="73" height="66" viewBox="0 0 73 66" fill="none" xmlns="http://www.w3.org/2000/svg">
<circle cx="35.5" cy="32.5" r="32.5" fill="#A56492" fill-opacity="0.65"/>
<path fill-rule="evenodd" clip-rule="evenodd" d="M68.4643 3H40.5714L38.7964 3.76071L35.5 7.00643L32.2036 3.76071L30.4286 3H2.53571L0 5.53571V56.25L2.53571 58.7857H29.3636L33.725 63.0964H37.275L41.6364 58.7857H68.4643L71 56.25V5.53571L68.4643 3ZM32.9643 55.3371L32.0514 54.475L30.4286 53.7143H5.07143V8.07143H29.3636L33.1164 11.8243L32.9643 55.3371ZM65.9286 53.7143H40.5714L38.7964 54.475L38.0864 55.1343V11.6214L41.6364 8.07143H65.9286V53.7143ZM25.3571 18.2143H10.1429V23.2857H25.3571V18.2143ZM25.3571 38.5H10.1429V43.5714H25.3571V38.5ZM10.1429 28.3571H25.3571V33.4286H10.1429V28.3571ZM60.8571 18.2143H45.6429V23.2857H60.8571V18.2143ZM45.6429 28.3571H60.8571V33.4286H45.6429V28.3571ZM45.6429 38.5H60.8571V43.5714H45.6429V38.5Z" fill="#F8F8F8"/>
<g clip-path="url(#clip0_1301_3)">
<path d="M21.8612 17.0064C20.1212 17.0734 18.5482 17.6944 17.7072 18.5364C17.6143 18.6293 17.504 18.7029 17.3826 18.7531C17.2613 18.8034 17.1312 18.8292 16.9998 18.8291C16.8685 18.8291 16.7384 18.8032 16.6171 18.7529C16.4958 18.7026 16.3855 18.6288 16.2927 18.5359C16.1999 18.443 16.1262 18.3327 16.076 18.2114C16.0258 18.09 16 17.9599 16 17.8286C16 17.6972 16.026 17.5672 16.0763 17.4458C16.1266 17.3245 16.2003 17.2143 16.2932 17.1214C17.5902 15.8244 19.7022 15.0884 21.7832 15.0074C23.8782 14.9264 26.1652 15.4994 27.7672 17.1014C27.9547 17.2891 28.06 17.5435 28.0599 17.8088C28.0598 18.0741 27.9543 18.3284 27.7667 18.5159C27.5791 18.7034 27.3246 18.8087 27.0593 18.8086C26.7941 18.8085 26.5397 18.7031 26.3522 18.5154C25.2622 17.4244 23.5882 16.9384 21.8612 17.0054V17.0064Z" fill="#F8F8F8"/>
<path fill-rule="evenodd" clip-rule="evenodd" d="M38.461 36.2707C40.7188 32.3974 41.5272 27.8479 40.7419 23.4339C38.9208 13.106 29.073 6.21052 18.7451 8.0316C8.41727 9.85268 1.5218 19.7004 3.34288 30.0283C5.16396 40.3562 15.0117 47.2517 25.3396 45.4306C29.9354 44.6202 33.8506 42.2213 36.6222 38.8968L36.6299 42.1702L49.344 51.0727L54.2537 44.0609L41.5396 35.1584L38.461 36.2707ZM24.5787 41.1153C32.5231 39.7145 37.8274 32.1392 36.4266 24.1948C35.0258 16.2504 27.4505 10.9461 19.506 12.3469C11.5616 13.7477 6.25733 21.323 7.65815 29.2674C9.05896 37.2118 16.6343 42.5161 24.5787 41.1153Z" fill="#DDDDDD"/>
<path d="M48.0666 50.2487L53.0487 43.1334L55.377 44.7637C56.6871 45.681 57.0054 47.4866 56.0879 48.7952L54.4263 51.1681C53.509 52.4782 51.7034 52.7966 50.3948 51.879L48.0666 50.2487Z" fill="#F8F8F8"/>
</g>
<defs>
<clipPath id="clip0_1301_3">
<rect width="57" height="50" fill="white" transform="translate(2 3)"/>
</clipPath>
</defs>
</svg>
