<svg width="61" height="61" viewBox="0 0 61 61" fill="none" xmlns="http://www.w3.org/2000/svg">
<path d="M26.8247 15.86L18.2263 5.93483C17.235 4.79108 15.4177 4.79616 14.2664 5.95008L7.19545 13.0337C5.09095 15.1407 4.48857 18.2695 5.70603 20.7782C12.9793 35.8374 25.1245 47.9996 40.1736 55.294C42.6797 56.5114 45.8059 55.9091 47.9104 53.802L55.0474 46.6523C56.2039 45.4959 56.2064 43.6684 55.0525 42.6772L45.0892 34.1244C44.0471 33.2298 42.428 33.3467 41.3834 34.3939L37.9166 37.8658C37.7391 38.0518 37.5055 38.1744 37.2516 38.2148C36.9976 38.2552 36.7375 38.2112 36.511 38.0894C30.8442 34.8262 26.1436 30.1194 22.8877 24.4483C22.7658 24.2215 22.7216 23.9609 22.762 23.7066C22.8024 23.4522 22.9251 23.2181 23.1114 23.0402L26.568 19.581C27.6152 18.5288 27.7296 16.9021 26.8247 15.8575V15.86Z" stroke="#F8F8F8" stroke-width="2" stroke-linecap="round" stroke-linejoin="round"/>
</svg>
