<svg width="45" height="45" viewBox="0 0 45 45" fill="none" xmlns="http://www.w3.org/2000/svg">
<path fill-rule="evenodd" clip-rule="evenodd" d="M38.25 7.875H6.75C6.15326 7.875 5.58097 8.11205 5.15901 8.53401C4.73705 8.95597 4.5 9.52826 4.5 10.125V34.875C4.5 35.4717 4.73705 36.044 5.15901 36.466C5.58097 36.8879 6.15326 37.125 6.75 37.125H38.25C38.8467 37.125 39.419 36.8879 39.841 36.466C40.2629 36.044 40.5 35.4717 40.5 34.875V10.125C40.5 9.52826 40.2629 8.95597 39.841 8.53401C39.419 8.11205 38.8467 7.875 38.25 7.875ZM9 32.625V12.375H36V32.625H9Z" fill="#F8F8F8"/>
<path fill-rule="evenodd" clip-rule="evenodd" d="M39.708 11.8372L23.8568 25.3372C23.448 25.6852 22.9283 25.8755 22.3915 25.8739C21.8547 25.8722 21.3362 25.6787 20.9295 25.3282L5.28078 11.8282C3.70128 10.467 4.66428 7.875 6.75003 7.875H38.25C40.3425 7.875 41.301 10.4805 39.708 11.8372ZM12.8025 12.375L22.41 20.6617L32.1345 12.375H12.8025Z" fill="#F8F8F8"/>
</svg>
