<svg width="20" height="19" viewBox="0 0 20 19" fill="none" xmlns="http://www.w3.org/2000/svg">
<path d="M9.49876 0.00297834C7.89376 0.0213846 4.44313 0.271947 2.51313 1.95404C1.07751 3.30542 0.576256 5.30338 0.517506 7.77398C0.468756 10.2357 0.410006 14.8586 5.10063 16.1174V18.0346C5.10063 18.0346 5.07126 18.8017 5.60501 18.959C6.26251 19.1568 6.63688 18.5666 7.26188 17.9324L8.42751 16.6802C11.6369 16.9338 14.095 16.3495 14.3781 16.2628C15.0294 16.0651 18.6975 15.6198 19.2969 10.9963C19.9119 6.22132 18.9975 3.21279 17.3469 1.85192H17.3369C16.8388 1.4161 14.8369 0.0302908 10.3644 0.0148533C10.3644 0.0148533 10.0325 -0.00652166 9.49876 0.00238459V0.00297834ZM9.55376 1.34545C10.0094 1.34248 10.2863 1.36088 10.2863 1.36088C14.0719 1.37038 15.8788 2.45279 16.305 2.81735C17.695 3.94904 18.4113 6.66129 17.8869 10.6477C17.3888 14.513 14.4138 14.7577 13.8631 14.9245C13.6288 14.9958 11.4638 15.5028 8.73626 15.336C8.73626 15.336 6.70501 17.6647 6.07001 18.2644C5.96938 18.3694 5.85188 18.4003 5.77688 18.3849C5.66938 18.3599 5.63688 18.2335 5.64313 18.0601L5.66251 14.8782C1.68438 13.8332 1.91876 9.8901 1.96126 7.83038C2.01001 5.77067 2.41688 4.0856 3.62813 2.94442C5.25876 1.54376 8.18876 1.35495 9.55251 1.34545H9.55376ZM9.85376 3.40457C9.82102 3.40426 9.78853 3.4101 9.75818 3.42177C9.72783 3.43344 9.70021 3.4507 9.67691 3.47256C9.65361 3.49441 9.6351 3.52044 9.62244 3.54912C9.60977 3.57781 9.60321 3.60859 9.60313 3.6397C9.60313 3.7727 9.71688 3.87779 9.85376 3.87779C10.4734 3.86659 11.0893 3.97206 11.6659 4.1881C12.2425 4.40414 12.7683 4.72648 13.2131 5.13654C14.1213 5.97432 14.5638 7.10007 14.5806 8.57198C14.5806 8.70201 14.6913 8.81007 14.8313 8.81007V8.80057C14.8972 8.80073 14.9606 8.7761 15.0076 8.73206C15.0545 8.68802 15.0812 8.62813 15.0819 8.56545C15.1122 7.87263 14.994 7.18118 14.7343 6.53314C14.4746 5.88509 14.0789 5.29398 13.5713 4.79573C12.5819 3.8772 11.3281 3.40398 9.85376 3.40398V3.40457ZM6.55938 3.94904C6.38247 3.92448 6.20205 3.95822 6.04813 4.04463H6.03501C5.67767 4.24362 5.35576 4.49512 5.08126 4.78979C4.85313 5.04035 4.72938 5.29388 4.69688 5.53792C4.67751 5.68338 4.69063 5.82885 4.73626 5.96779L4.75251 5.97729C5.00938 6.69454 5.34501 7.38448 5.75501 8.03404C6.28314 8.94661 6.9331 9.79057 7.68876 10.545L7.71126 10.5759L7.74688 10.6008L7.76938 10.6258L7.79563 10.6471C8.59265 11.3671 9.48319 11.9875 10.4456 12.4931C11.5456 13.0619 12.2131 13.3309 12.6138 13.4425V13.4484C12.7313 13.4823 12.8381 13.4977 12.9456 13.4977C13.2871 13.474 13.6103 13.3423 13.8638 13.1237C14.1725 12.8628 14.4343 12.5558 14.6388 12.2146V12.2087C14.8306 11.8655 14.7656 11.5407 14.4888 11.321C13.9343 10.8606 13.3347 10.4516 12.6981 10.0997C12.2719 9.88001 11.8388 10.013 11.6631 10.2357L11.2888 10.6839C11.0969 10.9066 10.7481 10.8757 10.7481 10.8757L10.7381 10.8817C8.13751 10.2505 7.44376 7.74904 7.44376 7.74904C7.44376 7.74904 7.41126 7.40882 7.65188 7.23545L8.12063 6.87682C8.34501 6.70345 8.50126 6.29257 8.26063 5.88704C7.89276 5.28151 7.4632 4.71174 6.97813 4.18595C6.87209 4.06199 6.72332 3.97765 6.55813 3.94785L6.55938 3.94904ZM10.2863 4.65442C9.95438 4.65442 9.95438 5.1306 10.2894 5.1306C10.7021 5.13696 11.1094 5.22052 11.488 5.37649C11.8667 5.53247 12.2093 5.75781 12.4963 6.03963C12.758 6.31395 12.9592 6.63539 13.0878 6.98491C13.2164 7.33443 13.2699 7.70491 13.245 8.07442C13.2461 8.13695 13.273 8.19657 13.3199 8.24052C13.3667 8.28446 13.4298 8.30924 13.4956 8.30954L13.5056 8.32201C13.5719 8.32154 13.6354 8.29631 13.6823 8.25176C13.7292 8.20721 13.7558 8.14692 13.7563 8.08391C13.7788 7.14045 13.47 6.34898 12.8644 5.71485C12.2556 5.08073 11.4063 4.72507 10.3219 4.65442H10.2863ZM10.6969 5.93454C10.355 5.92504 10.3419 6.41073 10.6806 6.42023C11.5044 6.4606 11.9044 6.85604 11.9569 7.66948C11.958 7.73122 11.9846 7.79009 12.0308 7.83348C12.0771 7.87687 12.1394 7.90133 12.2044 7.90163H12.2144C12.2478 7.90027 12.2806 7.8926 12.3109 7.87907C12.3411 7.86553 12.3683 7.84641 12.3907 7.8228C12.4131 7.7992 12.4303 7.7716 12.4413 7.7416C12.4524 7.71161 12.457 7.67982 12.455 7.6481C12.3963 6.58767 11.7875 5.99035 10.7069 5.93513H10.6969V5.93454Z" fill="#402D50"/>
</svg>
