<svg width="20" height="19" viewBox="0 0 20 19" fill="none" xmlns="http://www.w3.org/2000/svg">
<path fill-rule="evenodd" clip-rule="evenodd" d="M14.5125 11.3858C14.2642 11.2678 13.0467 10.6994 12.82 10.6202C12.5933 10.5418 12.4283 10.503 12.2625 10.739C12.0975 10.9733 11.6233 11.5037 11.4792 11.6605C11.3342 11.818 11.19 11.837 10.9425 11.7198C10.695 11.6011 9.89667 11.3533 8.95083 10.5521C8.215 9.92829 7.7175 9.158 7.57333 8.92209C7.42917 8.68696 7.5575 8.5595 7.68167 8.44234C7.79333 8.33704 7.92917 8.16763 8.05333 8.03067C8.1775 7.89292 8.21833 7.79475 8.30083 7.63721C8.38417 7.48046 8.3425 7.3435 8.28 7.22554C8.21833 7.10759 7.72333 5.94938 7.51667 5.47834C7.31583 5.01996 7.11167 5.0825 6.96 5.07459C6.815 5.06825 6.65 5.06667 6.485 5.06667C6.32 5.06667 6.05167 5.12525 5.825 5.36117C5.5975 5.59629 4.95833 6.1655 4.95833 7.32371C4.95833 8.48113 5.845 9.59975 5.96917 9.75729C6.09333 9.91404 7.715 12.2906 10.1992 13.3095C10.7908 13.5518 11.2517 13.6966 11.6108 13.8043C12.2042 13.984 12.7442 13.9587 13.1708 13.8977C13.6458 13.8304 14.6358 13.3285 14.8425 12.7791C15.0483 12.2297 15.0483 11.7586 14.9867 11.6605C14.925 11.5623 14.76 11.5037 14.5117 11.3858H14.5125ZM9.99417 17.2465H9.99083C8.51536 17.2467 7.06698 16.8699 5.7975 16.1555L5.4975 15.9861L2.37917 16.7635L3.21167 13.8755L3.01583 13.5795C2.19095 12.3321 1.75441 10.8884 1.75667 9.41529C1.75833 5.10071 5.45333 1.59046 9.9975 1.59046C12.1975 1.59046 14.2658 2.40588 15.8208 3.88471C16.5878 4.61034 17.1957 5.47324 17.6094 6.4235C18.0231 7.37377 18.2343 8.39252 18.2308 9.42084C18.2292 13.7354 14.5342 17.2465 9.99417 17.2465ZM17.0042 2.76134C16.086 1.88332 14.9935 1.18714 13.7901 0.713136C12.5866 0.239136 11.2961 -0.00325755 9.99333 1.92298e-06C4.53167 1.92298e-06 0.085 4.22354 0.0833333 9.4145C0.0825 11.0738 0.538333 12.6936 1.40583 14.121L0 19L5.25333 17.6906C6.70656 18.4428 8.33508 18.8369 9.99 18.8369H9.99417C15.4558 18.8369 19.9025 14.6134 19.9042 9.42163C19.9082 8.18447 19.654 6.95883 19.1562 5.81561C18.6584 4.67239 17.927 3.63428 17.0042 2.76134Z" fill="#402D50"/>
</svg>
