<svg width="157" height="157" viewBox="0 0 157 157" fill="none" xmlns="http://www.w3.org/2000/svg">
<circle cx="78.5" cy="78.5" r="77" fill="#A56492" stroke="#402D50" stroke-width="3"/>
<g clip-path="url(#clip0_1301_5)">
<path d="M121.594 62.4377V54.5955C121.594 49.6433 119.562 44.894 115.946 41.3923C112.329 37.8906 107.423 35.9233 102.308 35.9233H56.0222C50.9072 35.9233 46.0018 37.8906 42.3849 41.3923C38.7681 44.894 36.7362 49.6433 36.7362 54.5955V62.4377C32.3765 63.2948 28.4569 65.5848 25.6415 68.9197C22.8261 72.2546 21.2881 76.4293 21.2881 80.7364C21.2881 85.0435 22.8261 89.2182 25.6415 92.5531C28.4569 95.888 32.3765 98.178 36.7362 99.0351V114.346C36.7362 116.327 37.549 118.227 38.9957 119.627C40.4424 121.028 42.4046 121.815 44.4506 121.815H113.88C115.926 121.815 117.888 121.028 119.335 119.627C120.782 118.227 121.594 116.327 121.594 114.346V99.0351C125.954 98.178 129.874 95.888 132.689 92.5531C135.504 89.2182 137.042 85.0435 137.042 80.7364C137.042 76.4293 135.504 72.2546 132.689 68.9197C129.874 65.5848 125.954 63.2948 121.594 62.4377ZM56.0222 43.3922H102.308C105.373 43.4045 108.309 44.5888 110.477 46.6871C112.644 48.7855 113.867 51.6279 113.88 54.5955V62.4377C109.528 63.3068 105.618 65.6006 102.808 68.9334C99.9979 72.2661 98.4593 76.4342 98.4512 80.7364H59.8793C59.8712 76.4342 58.3327 72.2661 55.5226 68.9334C52.7126 65.6006 48.8026 63.3068 44.4506 62.4377V54.5955C44.4633 51.6279 45.6865 48.7855 47.8538 46.6871C50.0212 44.5888 52.9571 43.4045 56.0222 43.3922ZM117.93 91.9397H117.737C116.714 91.9397 115.733 92.3331 115.01 93.0335C114.286 93.7338 113.88 94.6837 113.88 95.6741V114.346H44.4506V95.6741C44.4506 95.1859 44.3505 94.7025 44.1561 94.252C43.9617 93.8015 43.6768 93.3929 43.318 93.0498C42.9592 92.7068 42.5336 92.4361 42.0659 92.2536C41.5981 92.071 41.0977 91.9802 40.5934 91.9864H40.4006C38.1226 91.9496 35.9065 91.2626 34.0301 90.0114C32.1538 88.7603 30.7006 87.0008 29.8529 84.9534C29.0051 82.906 28.8005 80.6618 29.2646 78.5023C29.7288 76.3428 30.841 74.3639 32.462 72.8139C34.0829 71.2638 36.1404 70.2115 38.3765 69.7889C40.6126 69.3663 42.9278 69.5922 45.0318 70.4382C47.1359 71.2842 48.9351 72.7128 50.2041 74.5448C51.473 76.3768 52.1552 78.5306 52.165 80.7364V99.4085C52.165 100.399 52.5714 101.349 53.2947 102.049C54.0181 102.749 54.9992 103.143 56.0222 103.143C57.0451 103.143 58.0262 102.749 58.7496 102.049C59.473 101.349 59.8793 100.399 59.8793 99.4085V88.2053H98.4512V99.4085C98.4512 100.399 98.8576 101.349 99.5809 102.049C100.304 102.749 101.285 103.143 102.308 103.143C103.331 103.143 104.312 102.749 105.036 102.049C105.759 101.349 106.166 100.399 106.166 99.4085V80.7364C106.166 78.5286 106.84 76.3702 108.103 74.5321C109.366 72.6939 111.162 71.2582 113.265 70.405C115.369 69.5518 117.685 69.3193 119.925 69.7367C122.164 70.1541 124.226 71.2027 125.852 72.7509C127.477 74.299 128.594 76.2778 129.062 78.4385C129.53 80.5993 129.329 82.8458 128.482 84.8959C127.636 86.946 126.183 88.7083 124.305 89.9615C122.428 91.2147 120.21 91.9029 117.93 91.9397Z" fill="white"/>
</g>
<defs>
<clipPath id="clip0_1301_5">
<rect width="115.754" height="85.1525" fill="white" transform="translate(21.2881 35.9233)"/>
</clipPath>
</defs>
</svg>
