<svg width="157" height="157" viewBox="0 0 157 157" fill="none" xmlns="http://www.w3.org/2000/svg">
<circle cx="78.5" cy="78.5" r="77" fill="#A56492" stroke="#402D50" stroke-width="3"/>
<path d="M118.792 75.9936C120.679 74.1117 122.175 71.8754 123.195 69.4133C124.215 66.9511 124.739 64.3117 124.735 61.6467C124.735 50.4414 115.65 41.3564 104.445 41.3564C93.2397 41.3564 84.1547 50.4414 84.1547 61.6467C84.1547 67.2502 86.4255 72.3228 90.0981 75.9936" stroke="white" stroke-width="4" stroke-linecap="round"/>
<path d="M74.0096 108.99L75.7004 100.536L94.2998 87.0093L104.445 97.1544L114.59 87.0093L133.189 100.536L134.88 108.99" stroke="white" stroke-width="4" stroke-linecap="round" stroke-linejoin="round"/>
<path d="M85.1526 62.5338C85.1526 62.5338 89.9078 61.9932 91.9757 60.5381C93.5237 59.4488 95.3873 54.5508 95.3873 54.5508C95.3873 54.5508 105.622 61.536 111.763 59.0412" stroke="white" stroke-width="3"/>
<path d="M109.767 58.5425L113.758 63.8645L121.742 65.8603" stroke="white" stroke-width="3"/>
<g clip-path="url(#clip0_1301_4)">
<path d="M66.902 79.7485C68.789 78.0807 70.2855 76.0989 71.3055 73.9169C72.3254 71.7349 72.8487 69.3957 72.8454 67.0339C72.8454 57.1035 63.7604 49.0522 52.5551 49.0522C41.3498 49.0522 32.2649 57.1035 32.2649 67.0339C32.2649 71.9999 34.5357 76.4953 38.2082 79.7485" stroke="white" stroke-width="4" stroke-linecap="round"/>
<path d="M22.1197 108.991L23.8106 101.499L42.41 89.5107L52.5551 98.5016L62.7002 89.5107L81.2996 101.499L82.9905 108.991" stroke="white" stroke-width="4" stroke-linecap="round" stroke-linejoin="round"/>
<path d="M33.9439 74.5364C33.9659 68.3776 35.0971 63.8777 37.3375 61.0396C40.6989 56.7824 43.0644 57.0956 44.7857 57.758C46.5087 58.4218 47.5215 62.7539 50.3976 64.0036C53.2721 65.2518 60.634 65.4062 63.1551 66.9091C65.6745 68.4106 71.4403 71.2053 70.0031 75.9764" stroke="white" stroke-width="4"/>
<path d="M62.3644 42.5763C62.3644 44.1626 61.4558 45.7472 59.687 46.9957C57.9221 48.2415 55.4054 49.0594 52.5551 49.0594C49.7048 49.0594 47.1881 48.2415 45.4232 46.9957C43.6545 45.7472 42.7458 44.1626 42.7458 42.5763C42.7458 40.99 43.6545 39.4054 45.4232 38.1569C47.1881 36.9111 49.7048 36.0933 52.5551 36.0933C55.4054 36.0933 57.9221 36.9111 59.687 38.1569C61.4558 39.4054 62.3644 40.99 62.3644 42.5763Z" stroke="white" stroke-width="3"/>
</g>
<defs>
<clipPath id="clip0_1301_4">
<rect width="81.161" height="81.161" fill="white" transform="translate(11.9746 34.5933)"/>
</clipPath>
</defs>
</svg>
